<?xml version="1.0" encoding="utf-8"?>
<!-- Generator: Adobe Illustrator 20.1.0, SVG Export Plug-In . SVG Version: 6.00 Build 0)  -->
<!DOCTYPE svg PUBLIC "-//W3C//DTD SVG 1.1//EN" "http://www.w3.org/Graphics/SVG/1.1/DTD/svg11.dtd">
<svg version="1.1" id="Layer_1" xmlns="http://www.w3.org/2000/svg" xmlns:xlink="http://www.w3.org/1999/xlink" x="0px" y="0px"
	 viewBox="0 0 183.6 45" enable-background="new 0 0 183.6 45" xml:space="preserve">
<circle fill="#0073BE" cx="18.7" cy="18.8" r="18.7"/>
<path d="M45.4,6.1h10.4c6.6,0,10.9,3.4,10.9,9.2v0.1c0,6.2-4.7,9.4-11.3,9.4h-2.8v7.5h-7.3L45.4,6.1L45.4,6.1z M55.3,19.1
	c2.6,0,4.2-1.4,4.2-3.4v-0.1c0-2.2-1.6-3.4-4.2-3.4h-2.6v6.9H55.3z M68.7,25.3V12h7.1v11c0,2.2,1.2,3.4,2.9,3.4s3-1.2,3-3.4V12h7.1
	v20.2h-7.1v-2.8c-1.3,1.7-3.2,3.2-6.1,3.2C71.3,32.7,68.7,29.9,68.7,25.3z M91.8,26V6.9h7.1V12h4.2v5.7h-4.2v6.9c0,1.4,0.6,2,1.9,2
	c0.9,0,1.8-0.3,2.2-0.7v5.6c-0.7,0.7-2.4,1.2-4.4,1.2C94.3,32.7,91.8,30.8,91.8,26z M105.9,12h7.1v2.8c1.3-1.7,3.2-3.3,6.1-3.3
	c4.3,0,6.9,2.8,6.9,7.4v13.2h-7.1v-11c0-2.2-1.2-3.4-2.8-3.4c-1.7,0-3,1.2-3,3.4v11H106L105.9,12L105.9,12z M127.8,26.5
	c0-4.3,3.2-6.4,7.9-6.4c1.9,0,3.7,0.4,4.9,0.8v-0.3c0-2.1-1.3-3.3-4-3.3c-2.1,0-3.8,0.4-5.6,1.1l-1.5-5c2.3-0.9,4.7-1.6,8.2-1.6
	c3.6,0,6.1,0.9,7.7,2.5c1.5,1.5,2.2,3.6,2.2,6.4v11.6h-7v-2.1c-1.4,1.5-3.3,2.5-6,2.5C130.7,32.7,127.8,30.5,127.8,26.5L127.8,26.5z
	 M140.7,24.9V24c-0.7-0.3-1.7-0.5-2.8-0.5c-2.1,0-3.3,1-3.3,2.5v0.1c0,1.4,1,2.2,2.5,2.2C139.2,28.3,140.7,27,140.7,24.9z M150.5,12
	h7.1v2.8c1.3-1.7,3.2-3.2,6-3.2c2.7,0,4.8,1.2,5.8,3.3c1.8-2,3.8-3.3,6.8-3.3c4.3,0,6.9,2.7,6.9,7.4v13.3H176v-11
	c0-2.2-1.1-3.4-2.8-3.4s-2.9,1.2-2.9,3.4v11h-7.1v-11c0-2.2-1.1-3.4-2.8-3.4s-2.9,1.2-2.9,3.4v11h-7.1V12H150.5z"/>
<g>
	<path d="M45.3,36.3h2.4v8.5h-2.4V36.3z M54.8,36.3H57l3.5,4.5v-4.5h2.3v8.5h-2.1l-3.6-4.7v4.7h-2.3C54.8,44.8,54.8,36.3,54.8,36.3z
		 M67.8,36.3h2.6l1.9,5.4l1.9-5.4H77l-3.5,8.6h-2.2C71.3,44.9,67.8,36.3,67.8,36.3z M82.4,36.3h6.9v2h-4.5v1.3h4.1v1.9h-4.1v1.4h4.6
		v2h-6.9L82.4,36.3L82.4,36.3z M95.4,43.6l1.3-1.6c0.8,0.7,1.8,1,2.8,1c0.6,0,1-0.2,1-0.6c0-0.4-0.3-0.5-1.4-0.8
		c-1.8-0.4-3.2-0.9-3.2-2.7c0-1.6,1.3-2.7,3.3-2.7c1.4,0,2.6,0.4,3.5,1.1l-1.2,1.7c-0.8-0.5-1.6-0.8-2.4-0.8c-0.6,0-0.9,0.2-0.9,0.5
		c0,0.4,0.3,0.6,1.5,0.8c2,0.4,3.2,1.1,3.2,2.7c0,1.7-1.4,2.8-3.4,2.8C97.9,45,96.4,44.5,95.4,43.6z M110.7,38.4h-2.6v-2.1h7.5v2.1
		H113v6.5h-2.4L110.7,38.4L110.7,38.4z M121.5,36.3h2.5l2,3.3l2-3.3h2.5v8.5h-2.3V40l-2.2,3.3l-2.2-3.3v4.9h-2.3
		C121.5,44.9,121.5,36.3,121.5,36.3z M137.4,36.3h6.9v2h-4.5v1.3h4.1v1.9h-4.1v1.4h4.6v2h-6.9v-8.6L137.4,36.3z M150.7,36.3h2.2
		l3.5,4.5v-4.5h2.3v8.5h-2.1l-3.6-4.7v4.7h-2.3L150.7,36.3L150.7,36.3z M166.6,38.4H164v-2.1h7.5v2.1H169v6.5h-2.4V38.4z
		 M176.1,43.6l1.3-1.6c0.8,0.7,1.8,1,2.8,1c0.6,0,1-0.2,1-0.6c0-0.4-0.3-0.5-1.4-0.8c-1.8-0.4-3.2-0.9-3.2-2.7
		c0-1.6,1.3-2.7,3.3-2.7c1.4,0,2.6,0.4,3.5,1.1l-1.2,1.7c-0.8-0.5-1.6-0.8-2.4-0.8c-0.6,0-0.9,0.2-0.9,0.5c0,0.4,0.3,0.6,1.5,0.8
		c2,0.4,3.2,1.1,3.2,2.7c0,1.7-1.4,2.8-3.4,2.8C178.6,45,177.2,44.5,176.1,43.6L176.1,43.6z"/>
</g>
<path fill="#FFFFFF" d="M23.9,30.6H13.3c-0.3,0-0.6-0.2-0.6-0.5v-1.2c0,0,0-0.2,0.1-0.3c0.1-0.1,0.3-0.2,0.5-0.2
	c2.2-0.2,3.8-1.8,3.8-2.8l0.4-13.8c0-0.3,0.2-0.5,0.5-0.5h1.1c0.3,0,0.5,0.2,0.5,0.5L20,25.6c0,1,1.6,2.6,3.8,2.8
	c0.3,0,0.4,0,0.5,0.1c0.1,0.1,0.1,0.2,0.1,0.5v1C24.4,30.4,24.2,30.6,23.9,30.6z M29.2,24.2h-3.8c-1.6,0-3.1-1.4-3.2-3
	c0-0.1,0-0.2,0.1-0.3c0.1-0.1,0.2-0.2,0.3-0.2h0.7l3-11H11.2l3,11h0.6c0.1,0,0.2,0.1,0.3,0.1c0.1,0.1,0.1,0.2,0.1,0.3
	c-0.1,1.6-1.6,3-3.2,3H8.3c-1.6,0-3.1-1.4-3.2-3c0-0.1,0-0.2,0.1-0.3c0.1-0.1,0.2-0.1,0.3-0.1h0.6L9.5,8.6C9.6,8.2,10,8,10.4,8h7
	c0.1-0.7,0.6-1.3,1.4-1.3s1.3,0.6,1.4,1.3h7c0.4,0,0.7,0.3,0.9,0.6l3.4,12.3h0.6c0.1,0,0.3,0.1,0.3,0.2c0.1,0.1,0.1,0.2,0.1,0.3
	C32.3,22.8,30.8,24.2,29.2,24.2z M25.1,20.8h4.4l-2.2-9.1C27.3,11.7,25.1,20.8,25.1,20.8z M8,20.8h4.4l-2.2-9.1L8,20.8z"/>
</svg>
